<?xml version="1.0" encoding="utf-8"?>
<!-- Generator: Adobe Illustrator 24.2.0, SVG Export Plug-In . SVG Version: 6.00 Build 0)  -->
<svg version="1.2" baseProfile="tiny" id="Layer_1" xmlns="http://www.w3.org/2000/svg" xmlns:xlink="http://www.w3.org/1999/xlink"
	 x="0px" y="0px" viewBox="0 0 200 200" overflow="visible" xml:space="preserve">
<g>
	<circle fill="#FFFFFF" cx="100" cy="100" r="94"/>
	<circle fill="none" stroke="#000000" stroke-width="10" stroke-miterlimit="10" cx="100" cy="100" r="94"/>
</g>
<g>
	<path fill="#FFFFFF" d="M140.41,98.37c0.46-0.24,0.46-0.63,0-0.87L66.77,59.1c-0.46-0.24-0.83-0.01-0.83,0.51l0,76.66
		c0,0.52,0.38,0.74,0.83,0.51L140.41,98.37z"/>
	<path fill="none" stroke="#000000" stroke-width="10" stroke-miterlimit="10" d="M140.41,98.37c0.46-0.24,0.46-0.63,0-0.87
		L66.77,59.1c-0.46-0.24-0.83-0.01-0.83,0.51l0,76.66c0,0.52,0.38,0.74,0.83,0.51L140.41,98.37z"/>
</g>
</svg>
