<svg id="SFX" xmlns="http://www.w3.org/2000/svg" viewBox="0 0 111 81.06"><defs><style>.cls-1,.cls-2{fill:none;stroke:#000;stroke-miterlimit:10;stroke-width:9px;}.cls-2{stroke-linecap:round;}</style></defs><g id="megaphone"><path class="cls-1" d="M94.41,64.17c.41-.37.74-.22.74.33v71c0,.55-.33.69-.73.32l-20.59-19a3,3,0,0,0-1.73-.68H49a1,1,0,0,1-1-1V84.9a1,1,0,0,1,1-1H71.34a3,3,0,0,0,1.74-.67Z" transform="translate(-43.5 -59.47)"/></g><g id="waves"><path class="cls-2" d="M113.9,120c13.67-10.92,13.46-28.77-.47-39.9" transform="translate(-43.5 -59.47)"/><path class="cls-2" d="M136.2,132.12c18.64-17.59,18.36-46.32-.63-64.24" transform="translate(-43.5 -59.47)"/></g></svg>