<svg xmlns="http://www.w3.org/2000/svg" viewBox="0 0 190.42 190.42"><defs><style>.cls-1,.cls-3{opacity:0.3;}.cls-2{fill:none;stroke:#ed1c24;stroke-miterlimit:10;stroke-width:9px;}.cls-3{fill:#ed1c24;}</style></defs><g id="Border"><g id="circle" class="cls-1"><circle class="cls-2" cx="95.21" cy="95.21" r="90.71"/></g></g><g id="SFX_Volume_Mute" data-name="SFX/Volume/Mute"><g id="megaphone" class="cls-1"><path class="cls-2" d="M94.43,64.35c.41-.36.74-.21.74.34v70.62c0,.55-.33.7-.73.32L74,116.7a3,3,0,0,0-1.74-.68h-23a1,1,0,0,1-1-1V85a1,1,0,0,1,1-1H71.48a3,3,0,0,0,1.74-.67Z" transform="translate(-3.79 -4.79)"/></g><path class="cls-3" d="M135.21,100,147,88.26a4.5,4.5,0,0,0-6.36-6.36L128.85,93.64,117.1,81.9a4.5,4.5,0,0,0-6.36,6.36L122.48,100l-11.74,11.74a4.5,4.5,0,1,0,6.36,6.36l11.75-11.74,11.74,11.74a4.5,4.5,0,0,0,6.36-6.36Z" transform="translate(-3.79 -4.79)"/></g></svg>